HIERARCHY
ROOT Hips
{
	OFFSET	0.00	0.00	0.00
	CHANNELS 6 Xposition Yposition Zposition Zrotation Xrotation Yrotation
	JOINT LeftUpLeg
	{
		OFFSET	 0.126116	-0.014019	-0.065224
		CHANNELS 3 Zrotation Xrotation Yrotation
		JOINT LeftLeg
		{
			OFFSET	 0.000000	 0.000000	 0.569914
			CHANNELS 3 Zrotation Xrotation Yrotation
			JOINT LeftFoot
			{
				OFFSET	 0.000000	 0.000000	 0.544423
				CHANNELS 3 Zrotation Xrotation Yrotation
				JOINT LeftToeBase
				{
					OFFSET	 0.000000	 0.000000	 0.207117
					CHANNELS 3 Zrotation Xrotation Yrotation
					End Site
					{
						OFFSET	 0.000000	 0.000000	 0.207117
					}
				}
			}
		}
	}
	JOINT RightUpLeg
	{
		OFFSET	-0.124023	-0.008373	-0.065224
		CHANNELS 3 Zrotation Xrotation Yrotation
		JOINT RightLeg
		{
			OFFSET	 0.000000	 0.000000	 0.570047
			CHANNELS 3 Zrotation Xrotation Yrotation
			JOINT RightFoot
			{
				OFFSET	 0.000000	 0.000000	 0.544354
				CHANNELS 3 Zrotation Xrotation Yrotation
				JOINT RightToeBase
				{
					OFFSET	 0.000000	 0.000000	 0.207540
					CHANNELS 3 Zrotation Xrotation Yrotation
					End Site
					{
						OFFSET	 0.000000	 0.000000	 0.207540
					}
				}
			}
		}
	}
	JOINT Spine
	{
		OFFSET	 0.000184	-0.007763	 0.117403
		CHANNELS 3 Zrotation Xrotation Yrotation
		JOINT Spine1
		{
			OFFSET	 0.000000	 0.000000	 0.137269
			CHANNELS 3 Zrotation Xrotation Yrotation
			JOINT Spine2
			{
				OFFSET	 0.000000	 0.000000	 0.156879
				CHANNELS 3 Zrotation Xrotation Yrotation
				JOINT LeftShoulder
				{
					OFFSET	 0.080501	-0.002496	 0.160144
					CHANNELS 3 Zrotation Xrotation Yrotation
					JOINT LeftArm
					{
						OFFSET	 0.000000	 0.000000	 0.164363
						CHANNELS 3 Zrotation Xrotation Yrotation
						JOINT LeftForeArm
						{
							OFFSET	 0.000000	 0.000000	 0.364576
							CHANNELS 3 Zrotation Xrotation Yrotation
							JOINT LeftHand
							{
								OFFSET	 0.000000	 0.000000	 0.360812
								CHANNELS 3 Zrotation Xrotation Yrotation
								JOINT LeftHandIndex1
								{
									OFFSET	 0.000000	 0.000000	 0.086006
									CHANNELS 3 Zrotation Xrotation Yrotation
									JOINT LeftHandIndex2
									{
										OFFSET	 0.000000	 0.000000	 0.047236
										CHANNELS 3 Zrotation Xrotation Yrotation
										JOINT LeftHandIndex3
										{
											OFFSET	-0.004284	-0.000551	 0.038166
											CHANNELS 3 Zrotation Xrotation Yrotation
											End Site
											{
												OFFSET	-0.004284	-0.000551	 0.038166
											}
										}
									}
								}
							}
						}
					}
				}
				JOINT Neck
				{
					OFFSET	 0.000000	 0.000000	 0.176489
					CHANNELS 3 Zrotation Xrotation Yrotation
					JOINT Head
					{
						OFFSET	 0.000000	-0.001747	 0.077940
						CHANNELS 3 Zrotation Xrotation Yrotation
						End Site
						{
							OFFSET	 0.000000	-0.001747	 0.077940
						}
					}
				}
				JOINT RightShoulder
				{
					OFFSET	-0.080363	 0.000306	 0.159706
					CHANNELS 3 Zrotation Xrotation Yrotation
					JOINT RightArm
					{
						OFFSET	 0.000000	 0.000000	 0.164196
						CHANNELS 3 Zrotation Xrotation Yrotation
						JOINT RightForeArm
						{
							OFFSET	 0.000000	 0.000000	 0.365611
							CHANNELS 3 Zrotation Xrotation Yrotation
							JOINT RightHand
							{
								OFFSET	 0.000000	 0.000000	 0.360648
								CHANNELS 3 Zrotation Xrotation Yrotation
								JOINT RightHandIndex1
								{
									OFFSET	 0.000000	 0.000000	 0.069977
									CHANNELS 3 Zrotation Xrotation Yrotation
									JOINT RightHandIndex2
									{
										OFFSET	 0.000000	 0.000000	 0.052305
										CHANNELS 3 Zrotation Xrotation Yrotation
										JOINT RightHandIndex3
										{
											OFFSET	 0.009002	-0.000782	 0.042196
											CHANNELS 3 Zrotation Xrotation Yrotation
											End Site
											{
												OFFSET	 0.009002	-0.000782	 0.042196
											}
										}
									}
								}
							}
						}
					}
				}
			}
		}
	}
}
MOTION
Frames:    7
Frame Time: 0.03333334
-0.059066	-2.258620	 1.198271	 5.302635	-1.149391	-3.491768	 7.303802	-10.877510	-172.796300	 1.073384	-39.358450	 0.457037	 60.717660	 81.837040	-64.890880	-2.369247	 31.639920	-0.070486	-13.707330	-32.117200	-175.681000	 11.017210	-50.395640	 9.124324	 15.810530	 78.528560	-11.574490	 2.358927	 33.005940	 0.103369	-6.979729	 8.594729	 1.030009	 0.953518	 2.705370	 2.460660	-6.595722	-2.772493	-3.032105	-93.999790	 59.016980	 175.250400	 15.960180	 33.928410	-39.349060	-16.176630	 2.728523	-10.419800	-10.124690	-17.627100	-11.126860	-4.867664	 19.286060	-2.789362	-3.880793	 21.482180	 2.202009	-4.807239	 5.557568	 0.146261	-0.061044	-5.088852	 0.199698	-8.473318	 1.928008	 2.142153	 89.756760	 61.676670	 179.939500	-19.697240	 52.636900	 8.556500	 12.082730	 3.348638	 22.847470	 4.305469	-4.082893	 1.154360	 6.288135	 24.393600	-0.539812	 1.945094	 44.214330	-7.046163	 0.626814	 23.833400	 3.517634
-0.060469	-2.297370	 1.196495	 6.235919	-0.139988	-3.684911	 6.263527	-9.760887	-172.964600	 1.456284	-38.623330	 0.688890	 64.955490	 82.600340	-69.334620	-2.366920	 32.020010	-0.079131	-16.421040	-35.031880	-176.698000	 11.563590	-44.802870	 8.750306	 33.849870	 83.013680	-31.522130	 2.360056	 32.838710	 0.099484	-6.934792	 7.859282	 0.948948	 0.901277	 2.633598	 2.724291	-6.790878	-2.937836	-3.133992	-94.267700	 58.988980	 174.683000	 14.825560	 31.496450	-40.406550	-16.687480	 2.696928	-10.353770	-9.525852	-17.639040	-11.585980	-4.855060	 19.603350	-2.809309	-3.861830	 21.724030	 2.182735	-4.797526	 5.671990	 0.139562	-0.014790	-5.145507	 0.280788	-8.502387	 1.879008	 2.010727	 89.629890	 61.831180	 179.634800	-19.024130	 53.826510	 6.286146	 10.924860	 3.059919	 23.115190	 3.675464	-2.822457	 0.288989	 6.255529	 22.238120	-0.585786	 2.170096	 42.292000	-7.245055	 1.083073	 21.780260	 3.295986
-0.062106	-2.350608	 1.191610	 6.617329	 0.669392	-4.216574	 5.694575	-7.357101	-173.024300	 1.686762	-37.405130	 0.810455	 72.507490	 83.612300	-76.939090	-2.359233	 33.196740	-0.106232	-16.128770	-37.412450	-177.009700	 10.921270	-36.579230	 7.022682	 90.847630	 83.535740	-90.298260	 2.353360	 33.800420	 0.121943	-6.365863	 6.996666	 1.254718	 0.908088	 3.426483	 2.830817	-6.905202	-3.338995	-3.194273	-94.472030	 58.873690	 174.266100	 12.723440	 28.715320	-41.861480	-17.636350	 2.647719	-10.247410	-9.624154	-17.609740	-10.693100	-4.827101	 20.190630	-2.822525	-3.825627	 22.181380	 2.145960	-4.771618	 5.976271	 0.121633	 0.021087	-5.271409	 0.341109	-8.526083	 1.788954	 1.924039	 89.453870	 62.023530	 179.206700	-17.650420	 55.171150	 3.215750	 8.767199	 2.494837	 23.716200	 2.688204	-1.514179	-1.795964	 6.198896	 19.194590	-0.702956	 2.513974	 39.066940	-7.544267	 1.741459	 18.693720	 3.000917
-0.066540	-2.419932	 1.182764	 7.043157	 0.723756	-4.460761	 4.711842	-3.112093	-173.764900	 2.137253	-35.589260	 1.038766	 62.020610	 84.126740	-66.458240	-2.321382	 37.785800	-0.217799	-15.123060	-38.825090	-177.227500	 10.672320	-27.840480	 5.394019	 69.078190	 81.884540	-69.612040	 2.336344	 35.957500	 0.173809	-6.133442	 7.011606	 1.385906	 0.883625	 3.962300	 2.923388	-6.920432	-3.759936	-3.275695	-94.536990	 59.011170	 174.105400	 9.973476	 26.884760	-43.193330	-17.570110	 2.565137	-10.097270	-10.189590	-18.012760	-11.255660	-4.855692	 20.534760	-3.090038	-3.780923	 22.738650	 2.100563	-4.718743	 6.593316	 0.084821	 0.130781	-5.425573	 0.327214	-8.351902	 1.830934	 1.555678	 89.357500	 61.861720	 178.980000	-15.446080	 56.074310	-0.792284	 6.599708	 1.873740	 23.534050	 2.330053	-1.189901	-3.982069	 6.170815	 15.582250	-0.604184	 2.915931	 34.796430	-7.885209	 2.478620	 15.072670	 2.707897
-0.074534	-2.486095	 1.170190	 7.430382	 0.353709	-3.620147	 3.939954	 1.127874	-175.838100	 2.004903	-34.472670	 0.935329	 28.264540	 81.827400	-31.705240	-2.185554	 47.609960	-0.502358	-13.165330	-42.083040	-177.885800	 7.458600	-25.996930	 3.621558	 14.545730	 74.475800	-11.159620	 2.340450	 35.468780	 0.161864	-6.023664	 7.033598	 0.616485	 0.941172	 5.089965	 2.925935	-6.959832	-4.153355	-3.453451	-94.465610	 59.340760	 174.203300	 7.955582	 25.852990	-44.682750	-17.557270	 2.471287	-9.922206	-10.876310	-18.030470	-11.756100	-4.890604	 20.695000	-3.343410	-3.755768	 23.048640	 2.075027	-4.645370	 7.440642	 0.033248	 0.245690	-5.476777	 0.248073	-8.089343	 1.993759	 1.647673	 89.354070	 61.464440	 178.986400	-13.796340	 56.266940	-4.390815	 4.896227	 1.297301	 24.144320	 1.908311	-1.189935	-5.228519	 6.255644	 12.359520	-0.048159	 3.111719	 32.495470	-8.047156	 3.061089	 12.098100	 2.506354
-0.083551	-2.561471	 1.157902	 8.795222	-0.696773	-2.431375	 4.014412	 6.990063	-179.048500	-0.279599	-31.575140	-0.331099	 7.628325	 70.418530	-6.946836	-1.863457	 59.030570	-0.985508	-9.071254	-43.579700	-176.891400	 6.566266	-26.631230	 3.297400	-4.466566	 59.737080	 12.831570	 2.334813	 36.135220	 0.178173	-6.398284	 7.391516	-0.500672	 0.674044	 6.454190	 2.795846	-7.139687	-4.451817	-3.675802	-94.374160	 59.059070	 174.445000	 6.919934	 24.385630	-45.960690	-17.681580	 2.360511	-9.707807	-10.651310	-15.923450	-10.947970	-4.888535	 20.971180	-3.423777	-3.727150	 23.398220	 2.045974	-4.559419	 8.419786	-0.027854	 0.380588	-5.399654	 0.287046	-7.913435	 2.389703	 2.055472	 89.185810	 61.362460	 178.592800	-12.565260	 56.239950	-6.179285	 4.213270	 1.041541	 23.461840	 1.667550	-0.924035	-4.556767	 6.348676	 9.604218	 0.410326	 3.328878	 29.756690	-8.223045	 3.476568	 9.921608	 2.379696
-0.093713	-2.647641	 1.148715	 10.278570	-1.421278	-1.011571	 6.315618	 13.102890	 176.198600	 1.321455	-27.903880	 0.453393	 0.187812	 48.739560	 5.211211	-1.142313	 69.895210	-1.851794	-11.849270	-41.243980	 179.905100	 7.318381	-26.617590	 3.637724	-5.023103	 50.265050	 14.227400	 2.356234	 33.396950	 0.112470	-6.636302	 7.457458	-1.317520	-0.214348	 6.894401	 1.598519	-7.377544	-4.322567	-3.341998	-94.192420	 59.546810	 174.759900	 6.997668	 23.963960	-46.234650	-16.396930	 2.217856	-9.450565	-9.407351	-13.073870	-11.061350	-4.802148	 21.319720	-3.026113	-3.659520	 24.211420	 1.977345	-4.492970	 9.166877	-0.075581	 0.381822	-5.348969	 0.216672	-7.935397	 2.862376	 2.148723	 89.013560	 60.643230	 178.230500	-11.610910	 55.555510	-7.693156	 5.074801	 1.122387	 23.230220	 2.784526	-0.662587	-2.741908	 6.380579	 8.707228	 0.547701	 3.389047	 28.961030	-8.271016	 3.658726	 8.954410	 2.328815
